{"title":"Mack Mane ft Rick Ross and Birdman - All In One Swipe [KingPinVi","uid":5899486,"size":200438897,"categoryP":"video","categoryS":"music_videos","magnet":"?xt=urn:btih:bf72e42912f46f11e5cc920df315f593d7ac8bd1&amp;dn=Mack+Mane+ft+Rick+Ross+and+Birdman+-+All+In+One+Swipe+%5BKingPinVi&amp;tr=udp%3A%2F%2Ftracker.openbittorrent.com%3A80&amp;tr=udp%3A%2F%2Fopen.demonii.com%3A1337&amp;tr=udp%3A%2F%2Ftracker.coppersurfer.tk%3A6969&amp;tr=udp%3A%2F%2Fexodus.desync.com%3A6969","seeders":0,"leechers":1,"uploader":"KingPinMan","files":7,"time":1287634624,"description":"Video Is Provided In Two Formats The Original MPEG and the new KingPinMKV format.\nSoon only one will stand which one? You Decide...\n\n[img]http://img191.imageshack.us/img191/8012/mackmaineswipe.png[/img]\n\n[img]http://img189.imageshack.us/img189/6049/mackmainswipe2.png[/img]\n\n[code]General\nComplete name                    : Mack Mane ft Rick Ross and Birdman - All In One Swipe [KingPinVideos].mpg\nFormat                           : MPEG-PS\nFile size                        : 93.4 MiB\nDuration                         : 4mn 34s\nOverall bit rate                 : 2 857 Kbps\nWriting library                  : encoded by TMPGEnc 4.0 XPress Version. 4.7.4.299\n\nVideo\nID                               : 224 (0xE0)\nFormat                           : MPEG Video\nFormat version                   : Version 1\nFormat settings, BVOP            : Yes\nFormat settings, Matrix          : Default\nDuration                         : 4mn 34s\nBit rate mode                    : Constant\nBit rate                         : 2 616 Kbps\nNominal bit rate                 : 2 700 Kbps\nWidth                            : 384 pixels\nHeight                           : 208 pixels\nDisplay aspect ratio             : 16:9\nFrame rate                       : 29.970 fps\nResolution                       : 8 bits\nScan type                        : Progressive\nBits/(Pixel*Frame)               : 1.093\nStream size                      : 85.5 MiB (92%)\nWriting library                  : TMPGEnc XPress 4.7.4.299\n\nAudio\nID                               : 192 (0xC0)\nFormat                           : MPEG Audio\nFormat version                   : Version 1\nFormat profile                   : Layer 2\nDuration                         : 4mn 34s\nBit rate mode                    : Constant\nBit rate                         : 128 Kbps\nChannel(s)                       : 2 channels\nSampling rate                    : 48.0 KHz\nStream size                      : 4.18 MiB (4%)[/code\n\n\n[color=&quot;#FFA500&quot;][b]DOWNLOAD HQ MKV VERSION OF THIS VIDEO IN BIGGER BETTER RESOLUTION[/b][/color]\n\n[code]General\nComplete name                    : Mack Main ft Rick Ross and Birdman - All In One Swipe [KingPinMKVideos].mkv\nFormat                           : Matroska\nFile size                        : 97.8 MiB\nDuration                         : 4mn 34s\nOverall bit rate                 : 2 991 Kbps\nEncoded date                     : UTC 2010-10-20 23:18:51\nWriting application              : mkvmerge v4.0.0 ('The Stars were mine') built on Jun  6 2010 16:18:42\nWriting library                  : libebml v1.0.0 + libmatroska v1.0.0\n\nVideo\nID                               : 1\nFormat                           : AVC\nFormat/Info                      : Advanced Video Codec\nFormat profile                   : &lt;a class=&quot;__cf_email__&quot; href=&quot;/cdn-cgi/l/email-protection&quot; data-cfemail=&quot;a7eac6cec9e7eb938996&quot;&gt;[email&amp;#160;protected]&lt;/a&gt;&lt;script cf-hash='f9e31' type=&quot;text/javascript&quot;&gt;\n/* &lt;![CDATA[ */!function(){try{var t=&quot;currentScript&quot;in document?document.currentScript:function(){for(var t=document.getElementsByTagName(&quot;script&quot;),e=t.length;e--;)if(t[e].getAttribute(&quot;cf-hash&quot;))return t[e]}();if(t&amp;&amp;t.previousSibling){var e,r,n,i,c=t.previousSibling,a=c.getAttribute(&quot;data-cfemail&quot;);if(a){for(e=&quot;&quot;,r=parseInt(a.substr(0,2),16),n=2;a.length-n;n+=2)i=parseInt(a.substr(n,2),16)^r,e+=String.fromCharCode(i);e=document.createTextNode(e),c.parentNode.replaceChild(e,c)}}}catch(u){}}();/* ]]&gt; */&lt;/script&gt;\nFormat settings, CABAC           : Yes\nFormat settings, ReFrames        : 4 frames\nMuxing mode                      : Container profile=&lt;a class=&quot;__cf_email__&quot; href=&quot;/cdn-cgi/l/email-protection&quot; data-cfemail=&quot;f3a69d989d9c849db3c7ddc2&quot;&gt;[email&amp;#160;protected]&lt;/a&gt;&lt;script cf-hash='f9e31' type=&quot;text/javascript&quot;&gt;\n/* &lt;![CDATA[ */!function(){try{var t=&quot;currentScript&quot;in document?document.currentScript:function(){for(var t=document.getElementsByTagName(&quot;script&quot;),e=t.length;e--;)if(t[e].getAttribute(&quot;cf-hash&quot;))return t[e]}();if(t&amp;&amp;t.previousSibling){var e,r,n,i,c=t.previousSibling,a=c.getAttribute(&quot;data-cfemail&quot;);if(a){for(e=&quot;&quot;,r=parseInt(a.substr(0,2),16),n=2;a.length-n;n+=2)i=parseInt(a.substr(n,2),16)^r,e+=String.fromCharCode(i);e=document.createTextNode(e),c.parentNode.replaceChild(e,c)}}}catch(u){}}();/* ]]&gt; */&lt;/script&gt;\nCodec ID                         : V_MPEG4/ISO/AVC\nDuration                         : 4mn 33s\nBit rate                         : 2 771 Kbps\nNominal bit rate                 : 2 838 Kbps\nWidth                            : 576 pixels\nHeight                           : 324 pixels\nDisplay aspect ratio             : 16:9\nFrame rate                       : 23.976 fps\nResolution                       : 8 bits\nColorimetry                      : 4:2:0\nScan type                        : Progressive\nBits/(Pixel*Frame)               : 0.619\nStream size                      : 90.5 MiB (93%)\nWriting library                  : x264 core 98 r1649 20cbe10\n\nAudio\nID                               : 2\nFormat                           : AC-3\nFormat/Info                      : Audio Coding 3\nCodec ID                         : A_AC3\nDuration                         : 4mn 34s\nBit rate mode                    : Constant\nBit rate                         : 160 Kbps\nChannel(s)                       : 2 channels\nChannel positions                : L R\nSampling rate                    : 48.0 KHz\nStream size                      : 5.23 MiB (5%)[/code]","torrent":{"xt":"urn:btih:bf72e42912f46f11e5cc920df315f593d7ac8bd1","amp;dn":"Mack+Mane+ft+Rick+Ross+and+Birdman+-+All+In+One+Swipe+%5BKingPinVi","amp;tr":["udp%3A%2F%2Ftracker.openbittorrent.com%3A80","udp%3A%2F%2Fopen.demonii.com%3A1337","udp%3A%2F%2Ftracker.coppersurfer.tk%3A6969","udp%3A%2F%2Fexodus.desync.com%3A6969"],"infoHash":"bf72e42912f46f11e5cc920df315f593d7ac8bd1","infoHashBuffer":{"type":"Buffer","data":[191,114,228,41,18,244,111,17,229,204,146,13,243,21,245,147,215,172,139,209]},"announce":[],"urlList":[]}}